<?xml version="1.0" encoding="utf-8"?>
<!-- Generator: Adobe Illustrator 23.0.1, SVG Export Plug-In . SVG Version: 6.00 Build 0)  -->
<svg version="1.1" id="Capa_1" xmlns="http://www.w3.org/2000/svg" xmlns:xlink="http://www.w3.org/1999/xlink" x="0px" y="0px"
	 viewBox="0 0 512 512" style="enable-background:new 0 0 512 512;" xml:space="preserve">
<style type="text/css">
	.st0{fill:#F15F24;stroke:#231F20;stroke-width:4;stroke-miterlimit:10;}
	.st1{fill:#F15F24;stroke:#231F20;stroke-width:3;stroke-miterlimit:10;}
</style>
<path class="st0" d="M211.7,116.4h-9.2v-14.1c0-5.5-4.5-10-10-10s-10,4.5-10,10v14.1h-9.2c-21.3,0-38.6,17.3-38.6,38.6v9.5
	c0,21.3,17.3,38.6,38.6,38.6h38.3c10.3,0,18.6,8.3,18.6,18.6v7.4c0,10.3-8.3,18.6-18.6,18.6h-38.3c-10.2,0-18.6-8.3-18.6-18.6
	c0-5.5-4.5-10-10-10s-10,4.5-10,10c0,21.3,17.3,38.6,38.6,38.6h9.2v14.1c0,5.5,4.5,10,10,10s10-4.5,10-10v-14.1h9.2
	c21.3,0,38.6-17.3,38.6-38.6v-7.4c0-21.3-17.3-38.6-38.6-38.6h-38.3c-10.2,0-18.6-8.3-18.6-18.6V155c0-10.3,8.3-18.6,18.6-18.6h38.3
	c10.3,0,18.6,8.3,18.6,18.6v0.9c0,5.5,4.5,10,10,10s10-4.5,10-10V155C250.3,133.7,233,116.4,211.7,116.4L211.7,116.4z"/>
<path d="M499.3,360l-98.4-98.4c-1.7-1.7-4-2.7-6.4-2.9l-21.3-1.4c7.5-20.8,11.4-42.7,11.4-65.2c0-105.9-86.1-192-192-192
	C104.6,0,28,59.5,6.4,144.6c-1.4,5.4,1.9,10.8,7.2,12.2c5.4,1.4,10.8-1.9,12.2-7.2C45.2,73.3,113.7,20,192.5,20
	c94.8,0,172,77.2,172,172c0,22.1-4.1,43.5-12.2,63.8l-26.9-1.8c8.8-18.8,13.8-39.8,13.8-62c0-80.9-65.8-146.6-146.6-146.6
	S45.9,111.1,45.9,192s65.8,146.6,146.6,146.6c21.7,0,42.3-4.7,60.9-13.3l1.8,26.8c-20,7.8-41,11.8-62.7,11.8
	c-78.8,0-147.4-53.3-166.7-129.6c-1.4-5.4-6.8-8.6-12.2-7.2c-5.4,1.4-8.6,6.8-7.2,12.2C28,324.5,104.5,384,192.5,384
	c22.1,0,43.6-3.7,64.1-11l1.5,21.9c0.2,2.4,1.2,4.7,2.9,6.4l98.4,98.4c8.1,8.1,18.8,12.2,29.5,12.2s21.4-4.1,29.5-12.2l80.7-80.7
	C515.5,402.8,515.5,376.3,499.3,360L499.3,360z M65.9,192c0-69.8,56.8-126.6,126.6-126.6S319.1,122.2,319.1,192
	c0,30.8-11.1,59.1-29.4,81.1l-10.5-10.5c-3.9-3.9-10.2-3.9-14.2,0c-3.9,3.9-3.9,10.2,0,14.1l10.6,10.6
	c-22.3,19.4-51.4,31.2-83.2,31.2C122.7,318.6,65.9,261.8,65.9,192L65.9,192z M485.1,404.9l-80.7,80.7c-8.5,8.5-22.3,8.5-30.8,0
	l-95.8-95.8l-4.8-71l17.1-17.1l6.8,6.8c2,2,4.5,2.9,7.1,2.9s5.1-1,7.1-2.9c3.9-3.9,3.9-10.2,0-14.1l-6.8-6.8l14.1-14.1l71,4.8
	l95.8,95.8C493.6,382.6,493.6,396.4,485.1,404.9z"/>
<path class="st1" d="M378.4,372.5c15.3-15.3,15.3-40.2,0-55.5c-15.1-15.1-40.4-15.1-55.5,0l-5.3,5.3c-15.3,15.3-15.3,40.2,0,55.5
	c15.2,15.1,40.4,15.2,55.5,0L378.4,372.5z M364.2,358.4l-5.3,5.3c-7.4,7.4-19.8,7.4-27.2,0c-7.5-7.5-7.5-19.7,0-27.2l5.3-5.3
	c7.4-7.4,19.8-7.4,27.2,0C371.7,338.6,371.7,350.9,364.2,358.4z"/>
<path class="st1" d="M401.9,379.8c2.1,5,8,7.5,13.1,5.4c5-2.1,7.5-8,5.4-13.1c-2.1-5-8-7.5-13.1-5.4
	C402.3,368.8,399.8,374.8,401.9,379.8z"/>
<path class="st1" d="M418.9,434.9c-1.6-3.9-5.7-6.5-10-6.1c-4.2,0.3-7.8,3.3-8.9,7.3c-2.4,8.7,7.5,15.9,15,11.1
	C419.1,444.6,420.7,439.3,418.9,434.9L418.9,434.9z"/>
<path class="st1" d="M442.2,397H378c-5.5,0-10,4.5-10,10s4.5,10,10,10h64.2c5.5,0,10-4.5,10-10S447.8,397,442.2,397z"/>
<path d="M8.6,201.8c8.8,1.8,15.2-8.6,10-15.7c-5.4-7.4-17.6-3.8-18.1,5.4C0.3,196.4,3.8,200.8,8.6,201.8z"/>
</svg>
