<?xml version="1.0" encoding="utf-8"?>
<!-- Generator: Adobe Illustrator 23.0.1, SVG Export Plug-In . SVG Version: 6.00 Build 0)  -->
<svg version="1.1" id="Layer_1" xmlns="http://www.w3.org/2000/svg" xmlns:xlink="http://www.w3.org/1999/xlink" x="0px" y="0px"
	 viewBox="0 0 232.4 119.1" style="enable-background:new 0 0 232.4 119.1;" xml:space="preserve">
<style type="text/css">
	.st0{fill:#0F0F0F;stroke:#000000;stroke-miterlimit:10;}
	.st1{fill:none;}
	.st2{fill:none;stroke:#000000;stroke-width:0.75;stroke-miterlimit:10;}
	.st3{fill:#58595B;}
	.st4{fill:#C73130;}
</style>
<path class="st0" d="M27.7,112.7v-43h13.5v-2.8H10.7v2.8h13.5v43H27.7z M73.2,112.7V77.3h-3.5V102c0,5.6-4.1,8.7-9.9,8.7
	c-7.6,0-9.7-3.1-9.7-10.1V77.3h-3.3v23.3c0,8.1,2.3,12.7,12,12.7c5,0,8.5-1.4,10.9-4.5l0.3,3.6h3.3L73.2,112.7L73.2,112.7z
	 M94.6,110.4c-5,0-7-1.4-7-7.3V80.7h10.5v-2.5H87.5v-8.5H84v33.5c0,7,2.3,10.1,9.9,10.1c1.8,0,3.5-0.2,4.1-0.6v-2.8
	C97.5,110.4,96,110.4,94.6,110.4z M109.5,89.9c0-8.1,2.3-10.6,9.9-10.6s9.9,2.5,9.9,10.6v9.8c0,8.5-2.3,10.6-9.9,10.6
	s-9.9-2.5-9.9-10.6V89.9z M119.2,76.7c-9.4,0-13.5,3.1-13.5,13.2V100c0,10.1,4.1,13.2,13.5,13.2s13.5-3.1,13.5-13.2V89.9
	C132.7,79.8,128.6,76.7,119.2,76.7z M143,77.3v35.1h3.5V88.8c0-5.9,4.4-8.9,10.3-8.9c0.9,0,1.8,0,2.3,0v-3.1c-0.6,0-1.5,0-2.1,0
	c-5.3,0-8.8,2.5-10.5,4.8l-0.3-4.2L143,77.3L143,77.3z M179.7,65.1h-11.5v-9.8H165v9.8h-11.4v2.5h11.5v9.8h3.3v-9.8h11.5L179.7,65.1
	L179.7,65.1z"/>
<ellipse class="st1" cx="75.3" cy="71.6" rx="1.7" ry="1.7"/>
<path class="st2" d="M52.8,39.4L26.7,26.3 M39.9,46.1l13.1-6.6 M52.8,39.4l13.1,6.6 M52.8,52.7L52.8,52.7 M52.8,52.7V39.4
	 M52.8,39.4L52.8,39.4 M65.9,32.9l-13.1,6.6 M52.8,39.4V26.3 M79,52.7L79,52.7 M65.9,46.1L79,52.7 M92,32.9L79,26.3 M79,26.3
	L92,19.6 M92,32.9L92,32.9 M79,13v13.2 M79,26.3L92,32.9 M92,19.6L92,19.6 M52.8,52.7v13.2 M79,52.7l-13.1-6.6 M65.9,59.3L65.9,59.3
	 M79,52.7L79,52.7 M65.9,59.3V46.1 M79,52.7L79,52.7 M52.8,65.8L52.8,65.8 M52.8,65.8L52.8,65.8 M52.8,52.7L52.8,52.7 M52.8,52.7
	L52.8,52.7 M52.8,52.7l-13.1,6.6"/>
<ellipse class="st3" cx="95.3" cy="12.9" rx="2.7" ry="2.6"/>
<ellipse class="st3" cx="82.5" cy="51.2" rx="1" ry="1"/>
<ellipse class="st4" cx="65.9" cy="59.3" rx="1.1" ry="1.2"/>
<ellipse class="st3" cx="24.3" cy="18.6" rx="2.7" ry="2.6"/>
<ellipse class="st4" cx="70.1" cy="26.6" rx="2.7" ry="2.6"/>
<ellipse class="st3" cx="54.2" cy="20.7" rx="2.1" ry="2"/>
<ellipse class="st3" cx="54.1" cy="66.3" rx="1.6" ry="1.9"/>
<ellipse class="st3" cx="81.3" cy="5.3" rx="0.9" ry="1"/>
<ellipse class="st4" cx="35.7" cy="40.4" rx="2.7" ry="2.6"/>
<ellipse class="st4" cx="39.7" cy="59" rx="1.6" ry="2.1"/>
<ellipse class="st4" cx="95.3" cy="27.6" rx="2.7" ry="2.6"/>
</svg>
