<?xml version="1.0" encoding="utf-8"?>
<!-- Generator: Adobe Illustrator 23.0.1, SVG Export Plug-In . SVG Version: 6.00 Build 0)  -->
<svg version="1.1" id="Capa_1" xmlns="http://www.w3.org/2000/svg" xmlns:xlink="http://www.w3.org/1999/xlink" x="0px" y="0px"
	 viewBox="0 0 512 512" style="enable-background:new 0 0 512 512;" xml:space="preserve">
<style type="text/css">
	.st0{fill:#F15F24;stroke:#231F20;stroke-width:3;stroke-miterlimit:10;}
</style>
<g>
	<g>
		<path d="M238.2,310.3c-2-1.7-4.9-1.2-6.4,1.1l-0.6,0.9c-1.5,2.3-1.1,5.6,1,7.4c0.8,0.7,1.8,1,2.7,1c1.4,0,2.8-0.7,3.7-2.1l0.6-0.9
			C240.6,315.3,240.2,312,238.2,310.3z"/>
	</g>
</g>
<g>
	<g>
		<path d="M239.4,360.4l-11.8-24.6l11.1-17.2c1.5-2.3,1.1-5.6-1-7.4c-2-1.7-4.9-1.2-6.4,1.1l-12.8,19.9c-1.1,1.7-1.2,3.9-0.3,5.7
			l13.3,27.6l0,0c0.8,1.7,2.4,2.7,4,2.7c0.8,0,1.5-0.2,2.2-0.7C239.8,366.1,240.6,362.9,239.4,360.4z"/>
	</g>
</g>
<g>
	<g>
		<path d="M283.4,343.1l-13.6-20.7c-1.1-1.7-3-2.6-4.9-2.1c-1.9,0.4-3.4,2-3.8,4.1c-0.4,1.6-0.1,3.3,0.8,4.6l11.8,17.9L261,372.3
			c-0.4,0.8-0.6,1.7-0.6,2.6c0,2.5,1.5,4.7,3.7,5.3c0.4,0.1,0.8,0.2,1.2,0.2c1.8,0,3.4-1.1,4.3-2.8l14.1-28.6
			C284.7,347.1,284.5,344.8,283.4,343.1z"/>
	</g>
</g>
<g>
	<g>
		<path d="M281,249.5c-1.5-0.9-3.3-0.8-4.8,0.3c-2.7,2.2-5.3,4.4-7.6,6.8c-12.4,12.8-24.2,11.1-24.6,11c-0.3,0-0.6-0.1-0.8-0.1
			c-4.9,0.1-13.7-5-23.1-13.4c-1.4-1.3-2.9-2.5-4.4-3.6c-1.4-1.1-3.2-1.2-4.7-0.3s-2.4,2.7-2.4,4.6V273c0,1.6,0.6,3.1,1.7,4.1
			c0.1,0.1,0.3,0.2,0.4,0.3l32.7,24.9l0,0l0.1,0.1c0.8,0.6,1.7,0.9,2.5,0.9c0.7,0,1.5-0.2,2.2-0.6c0.1-0.1,0.3-0.2,0.4-0.3l0,0
			c0,0,0,0,0.1,0l32.6-24.9c0.1-0.1,0.3-0.2,0.4-0.3c1.1-1,1.8-2.5,1.8-4.2v-18.8C283.4,252.2,282.5,250.4,281,249.5z M274.2,270.2
			L246,291.7l-28.2-21.6v-4.8c6.9,5.7,17,12.7,25.2,12.7c0,0,0,0,0.1,0c2.8,0.3,16.9,1.3,31.2-13L274.2,270.2L274.2,270.2z"/>
	</g>
</g>
<g>
	<g>
		<path d="M250.6,297.2c-0.3-2.1-1.7-3.8-3.5-4.3s-3.7,0.3-4.8,2l-10.6,16.5c-1.5,2.3-1.1,5.6,1,7.4c0.8,0.7,1.8,1,2.7,1
			c1.4,0,2.8-0.7,3.7-2.2l10.5-16.4c0.6-0.9,0.9-2,0.9-3.2C250.6,297.8,250.6,297.5,250.6,297.2z"/>
	</g>
</g>
<g>
	<g>
		<path d="M328.9,129.5c-0.1-0.9-2.4-19.4-18.1-26.8c0.5-3.3,0.4-7.5-1.5-11.5c-2.5-5.5-7.4-9.1-14.6-10.6c-0.3-0.1-0.6-0.1-0.9-0.1
			h-66.2c-26.9,0-48.7,24.4-48.7,54.3v28.9c0,7.5,2.3,14.9,6.5,20.7c2.1,2.9,4.6,7.9,5,15.5c0.2,3,2.4,5.3,5.1,5.2
			c2.7-0.1,4.8-2.5,4.8-5.5v-37.7c3.3-15.4,14.8-18.4,16.7-18.8h21.4c2.5,0,5-0.4,7.4-1.3c4.1-1.5,10.5-4.1,15.2-6.1
			c3.1-1.3,6.6-1.4,9.8-0.1l22.9,9c11.5,4.7,13.5,15.9,13.8,17.7v45.3c0,2.9,2,5.3,4.6,5.5c0.1,0,0.2,0,0.4,0c2.4,0,4.5-2,4.9-4.7
			c0-0.1,2-14.3,8.3-25.7c2.2-3.9,3.4-8.5,3.4-13v-39.4C328.9,129.9,328.9,129.7,328.9,129.5z M319.1,169.5c0,2.5-0.6,4.9-1.8,7.1
			v-14.8c0-0.2,0-0.4,0-0.6c-0.1-0.8-2.1-19.6-20.2-27c0,0,0,0-0.1,0l-22.9-9c-2.6-1-5.3-1.5-8-1.5c-2.9,0-5.8,0.6-8.6,1.8
			c-6.6,2.8-11.7,4.8-14.7,5.9c-1.4,0.5-2.9,0.7-4.3,0.7h-21.8c-0.2,0-0.4,0-0.6,0c-0.8,0.1-20.5,3.2-25.4,27.9
			c-0.1,0.4-0.1,0.8-0.1,1.2v11.3c-1.1-2.8-1.6-5.8-1.6-8.9v-28.9c0-23.9,17.4-43.3,38.9-43.3h65.7c2.7,0.6,6,2,7.3,4.7
			c1.5,3.3-0.2,7.8-0.2,7.8c-0.6,1.5-0.6,3.2,0,4.7s1.8,2.6,3.3,3c12.5,3.4,15.1,16.8,15.4,18.9L319.1,169.5L319.1,169.5z"/>
	</g>
</g>
<g>
	<g>
		<path d="M317.2,161.2c-0.1-0.8-2.1-19.6-20.2-27c0,0,0,0-0.1,0l-22.9-9c-5.4-2.1-11.3-2-16.6,0.2c-6.6,2.8-11.7,4.8-14.7,5.9
			c-1.4,0.5-2.9,0.7-4.3,0.7h-21.8c-0.2,0-0.4,0-0.6,0c-0.8,0.1-20.5,3.2-25.4,27.9c-0.1,0.4-0.1,0.8-0.1,1.2v47.2v0.1
			c0,1.6,1.1,40.4,25.1,58.1l0.1,0.1c0.1,0.1,0.2,0.2,0.3,0.2c1.4,1,2.7,2.1,4.1,3.3c7,6.1,20.2,16.3,30.6,16.3c0,0,0,0,0.1,0
			c0.6,0.1,1.6,0.2,2.9,0.2c5.9,0,18.5-1.7,31.1-14.4c2.1-2.1,4.5-4.2,7.1-6.2l0.4-0.3c0.1-0.1,0.2-0.2,0.4-0.3
			c8-6,21.9-21.5,24.8-57.7c0-0.2,0-0.3,0-0.5v-45.6C317.3,161.6,317.3,161.4,317.2,161.2z M307.4,207.1
			c-2.7,32.7-15.2,45.4-20.5,49.3c-0.2,0.1-0.4,0.3-0.6,0.4L286,257c-2.9,2.3-5.7,4.6-8.1,7.1c-13.2,13.3-25.8,11.6-26.4,11.5
			c-0.3,0-0.6-0.1-0.9-0.1c-5.2,0.1-14.7-5.2-24.7-13.9c-1.5-1.3-3.1-2.6-4.7-3.8l-0.1-0.1c-0.1-0.1-0.2-0.2-0.4-0.3
			c-19.4-14.3-20.7-47.7-20.7-49.1v-46.5c3.4-15.5,14.9-18.4,16.7-18.8h21.4c2.5,0,5-0.4,7.4-1.3c4.1-1.5,10.5-4.1,15.2-6.1
			c3.1-1.3,6.6-1.4,9.8-0.1l22.9,9c11.5,4.7,13.5,15.9,13.8,17.7L307.4,207.1L307.4,207.1z"/>
	</g>
</g>
<g>
	<g>
		<path d="M250.1,295.7c-0.7-1.6-2.1-2.7-3.7-2.9c-1.6-0.2-3.2,0.7-4.1,2.1l-11,17.2c-1.5,2.3-1.1,5.6,1,7.4c0.8,0.7,1.8,1,2.7,1
			c1.4,0,2.8-0.7,3.7-2.1l11-17.1c0.6-0.9,0.9-2.1,0.9-3.2C250.6,297.2,250.4,296.4,250.1,295.7z"/>
	</g>
</g>
<g>
	<g>
		<path d="M250.4,380.5c-1.7-2.1-4.6-2.2-6.4-0.2l-1.1,1.1c-1.6,1.6-2,4.3-0.9,6.5v0.1c0.7,1.4,2,2.4,3.4,2.6c0.2,0,0.4,0,0.6,0
			c1.2,0,2.4-0.5,3.3-1.5l1-1.2C252.1,385.8,252.2,382.5,250.4,380.5z"/>
	</g>
</g>
<g>
	<g>
		<path d="M249.1,381.3l-1.1-1.1c-1.8-1.9-4.7-1.8-6.4,0.2c-1.7,2.1-1.7,5.3,0.1,7.4l1,1.2c0.9,1,2,1.5,3.3,1.5c0.2,0,0.4,0,0.7-0.1
			c1.4-0.2,2.7-1.2,3.4-2.7v-0.1C251,385.6,250.7,383,249.1,381.3z"/>
	</g>
</g>
<g>
	<g>
		<path d="M249.2,381.4L249.2,381.4c-0.7-0.8-1.6-1.3-2.7-1.4c-1.4-0.2-2.7,0.4-3.6,1.4l0,0c-0.9,1-1.5,2.3-1.5,3.8
			c0,1.4,0.5,2.8,1.4,3.8v0.1c0.9,1,2.1,1.5,3.2,1.5c1.2,0,2.4-0.5,3.3-1.5V389c0.9-1,1.4-2.4,1.3-3.8
			C250.6,383.7,250.1,382.4,249.2,381.4z"/>
	</g>
</g>
<g>
	<g>
		<path d="M247.5,293c-1.9-0.7-4,0.1-5.2,2c-1.3,2.1-1.1,4.9,0.5,6.8c0.9,1,2.1,1.5,3.3,1.5c0.9,0,1.9-0.3,2.7-1c1.2-1,2-2.6,2-4.3
			l0,0C250.7,295.7,249.4,293.6,247.5,293z"/>
	</g>
</g>
<g>
	<g>
		<path d="M249.8,294.9L249.8,294.9c-1.2-1.9-3.3-2.6-5.2-1.9s-3.2,2.7-3.2,5v0.1c0,1.9,1,3.7,2.4,4.6c0.7,0.4,1.4,0.6,2.2,0.6
			c0.9,0,1.8-0.3,2.6-0.9c1.1-0.8,1.8-2.1,2-3.5C250.8,297.5,250.5,296,249.8,294.9z"/>
	</g>
</g>
<g>
	<g>
		<path d="M300.8,278.3c-0.5-1.4-1.5-2.6-2.8-3.1l-17.7-7.2c-0.1-0.1-0.3-0.1-0.4-0.2c-1.3-0.4-2.6-0.1-3.7,0.7l-32.7,25l0,0
			l2.6,4.4l-2.6-4.3c-1,0.7-1.6,1.8-1.9,3.1c-0.2,0.7-0.2,1.4-0.1,2.1c0.1,0.8,0.4,1.6,0.8,2.3l24,37.3c0.9,1.4,2.3,2.1,3.7,2.1
			c0.1,0,0.2,0,0.3,0c1.6-0.1,3-1.1,3.7-2.7l26.5-55.1C301.2,281.4,301.3,279.8,300.8,278.3z M269.4,325.6l-16.8-26.2l26.9-20.5
			l10.4,4.3L269.4,325.6z"/>
	</g>
</g>
<g>
	<g>
		<path d="M258.6,306.5c-0.2-1.5-1-2.8-2.1-3.6l-35.1-26.2c-1.1-0.8-2.5-1.1-3.8-0.8c-0.2,0-0.4,0.1-0.6,0.2l-18.9,7.5
			c-1.4,0.5-2.4,1.7-2.9,3.2s-0.4,3.2,0.3,4.6l28.4,57.5c0.8,1.6,2.3,2.7,4,2.8c0.1,0,0.2,0,0.3,0c1.6,0,3-0.8,4-2.2l13.7-20.8
			c0,0,0,0,0-0.1l11.9-18.1C258.6,309.5,258.9,308,258.6,306.5z M237.9,322.3C237.9,322.3,237.8,322.4,237.9,322.3l-9.1,13.9
			l-21.9-44.3l11.1-4.4l28.8,21.4L237.9,322.3z"/>
	</g>
</g>
<g>
	<g>
		<path d="M399.3,380.7l-6.4-42.8c-2-13.5-10.4-24.8-21.9-29.4l-61.5-24.8c-1.9-0.8-4-0.2-5.4,1.5c-1.3,1.7-1.6,4.1-0.7,6.1
			l12.8,28.7l-12.6,0.2c-1.7,0-3.3,1-4.2,2.7c-0.9,1.6-0.9,3.7-0.1,5.4l5.2,11l-52.9,53.9c-0.1,0.1-0.1,0.1-0.2,0.2l-1.1,1.2
			c-1.5,1.7-1.9,4.4-0.8,6.5v0.1c0.9,1.8,2.5,2.9,4.3,2.9h127.7c5.3,0,10.3-2.6,13.7-7.1C398.7,392.4,400.2,386.5,399.3,380.7z
			 M387.8,389.8c-1.6,2-3.8,3.2-6.2,3.2H266.4l47.6-48.5c1.7-1.7,2.1-4.4,1-6.6l-3.2-6.8l12.4-0.2c1.7,0,3.3-1,4.1-2.6
			c0.9-1.6,1-3.6,0.2-5.3l-10.8-24.2l49.9,20.1c8.2,3.3,14.2,11.3,15.6,20.9l6.4,42.8l0,0C390,385.1,389.3,387.8,387.8,389.8z"/>
	</g>
</g>
<g>
	<g>
		<path d="M249.2,381.5L249.2,381.5c-1.9-1.9-4.7-1.9-6.4,0.1v0.1c-1.3,1.5-1.7,3.8-1,5.7c0.7,2,2.4,3.2,4.3,3.2h0.1
			c1.9,0,3.6-1.3,4.3-3.4C251.1,385.2,250.6,382.9,249.2,381.5z"/>
	</g>
</g>
<g>
	<g>
		<path d="M249.1,381.3c-1-1.1-2.5-1.5-3.9-1.3c-1.4,0.3-2.6,1.2-3.3,2.7v0.1c-1,2-0.7,4.5,0.7,6.2l0,0c0.9,1.1,2.1,1.6,3.3,1.6
			c1.1,0,2.2-0.5,3.1-1.4l0,0c0.4-0.4,0.8-1,1-1.5C251.1,385.5,250.6,382.9,249.1,381.3z"/>
	</g>
</g>
<g>
	<g>
		<path d="M257.3,394.6L257.3,394.6C257.2,394.6,257.2,394.6,257.3,394.6l-1.2-1.3c-0.1-0.1-0.1-0.1-0.2-0.2L203,339.3l5.2-11
			c0.8-1.7,0.7-3.7-0.1-5.4c-0.9-1.6-2.4-2.7-4.2-2.7l-12.6-0.2l12.8-28.7c0.9-2,0.6-4.4-0.7-6.1s-3.5-2.3-5.4-1.5l-61.5,24.8
			c-11.5,4.6-19.9,15.9-21.9,29.4l-6.4,42.8c-0.9,5.8,0.6,11.8,4,16.3s8.4,7.1,13.7,7.1h127.8c2,0,3.8-1.3,4.6-3.4
			C259.1,398.6,258.7,396.2,257.3,394.6z M126,393c-2.4,0-4.7-1.2-6.2-3.2c-1.6-2-2.2-4.7-1.8-7.4l6.4-42.8
			c1.4-9.6,7.4-17.6,15.6-20.9l49.9-20.1L179,322.9c-0.8,1.7-0.7,3.7,0.2,5.3c0.9,1.6,2.4,2.6,4.1,2.6l12.4,0.2l-3.2,6.8
			c-1,2.2-0.6,4.9,1,6.6l47.6,48.5H126V393z"/>
	</g>
</g>
<g>
	<g>
		<path d="M261.7,316.8c0.3-1.5,0.1-3.1-0.8-4.4l-11.2-17.5c-1.2-1.8-3.3-2.6-5.1-1.9c-1,0.4-1.9,1.2-2.4,2.1l-11,17.1
			c-0.2,0.2-0.3,0.5-0.4,0.8c-0.8,1.7-0.6,3.8,0.3,5.4l4.7,7.7l-5,36c-0.2,1.2,0,2.3,0.5,3.4l10.7,22.2c0.8,1.7,2.4,2.7,4,2.7
			c1.7,0,3.2-1,4-2.7l10.8-22.4c0.4-0.8,0.6-1.7,0.6-2.5l0,0c0-0.3,0-0.6-0.1-0.8l-5-35.8l4.6-7.6
			C261.3,318,261.6,317.4,261.7,316.8z M246,374.2l-5.9-12.3l5-36.3c0.2-1.3-0.1-2.7-0.8-3.8l-3.9-6.3l5.5-8.5l5.5,8.6l-3.8,6.3
			c-0.7,1.1-1,2.5-0.8,3.8l5,36.1L246,374.2z"/>
	</g>
</g>
<path class="st0" d="M261.8,25.8c-94.7,0-180.1,56.1-216.4,142.1c-36.2,86-16.2,185,50.8,250.8c91.4,89.9,239.7,89.9,331.1,0
	s91.4-235.6,0-325.5C383.6,50,324,25.7,261.8,25.8z M111.7,403.7c-79.9-78.6-83.2-204.9-7.5-287.5l300,294.8
	C321,485,192,482.5,111.7,403.7z M419.7,395.9L119.7,101c84-74.3,212.4-71,292.5,7.4C492.1,187,495.4,313.4,419.7,395.9z"/>
</svg>
